<svg xmlns="http://www.w3.org/2000/svg" viewBox="0 0 33.45 15.19"
     onclick="document.getElementById('map_radio-US').checked = true">
    <path fill="#009eb4"
          d="M.03,13.32c1.66,.29,3.31-.72,4.61-.36,.14-.79,1.3-.5,2.59-1.51,2.59-.22,3.53-.5,3.53-.5h0l2.66-.14,.72,1.08h0c3.46,0,4.1-.58,5.18-.29,1.87,1.15,2.38,1.58,2.38,1.58,0,0,2.38,1.51,2.59,2.02,.86-.5,1.87-.79,2.45-.79-.5-.86,1.08-2.45,1.08-2.45,.65-1.08,.86-1.08,.22-1.66-.14-.43,.43-.22,.43-.22,0,.72,1.08,.43,1.01-.14,1.22-.07,1.87-.65,1.87-.65,1.66-1.87,.07-1.87-.79-.94-.5,.29-.86-.29-.86-.29,.72,.29,1.8-1.08,1.58-1.58-.43-.43-2.52,0-2.45-.79,1.66,.43,1.87-.36,1.87-.36,.5-.14,.07,.22,1.37,.86,1.58-1.3,1.37-2.74,1.37-2.74-.5-1.44-.86,0-.86,0h0l.43,.79h0c0,.43-.5,.29-.5,.29,.14-.5-.29-1.73-.29-1.73-.58-.5-.72,.43-.72,.43-.94,0-1.01,.43-1.87,.22,0-.5-.5-.72-.36-1.3,.5-.58,.5,.58,.5,.58,1.58,.94,.94-.65,.94-.65,.86,0,1.15-.43,1.15-.43,0,0,.07-1.08,.43,.22,1.01-.94-.5-1.87-.5-1.87,0,0-2.95,1.01-7.78,1.66h0l-7.13,1.3-6.26,.72h0s-1.66,1.3-2.16,2.52c-1.08-.22-1.22,1.3-1.8,1.37,0,0-.43-.72-.72-.5,0,0-.86,1.15-1.58,1.66,0,0-.79,1.08-1.37,1.3,0,0-2.02-.22-2.09,1.87,0,0-1.08,0-.86,1.44H.03Z"
          onclick="event.stopPropagation();document.getElementById('map_radio-VA').checked = true"/>
</svg>
